<?xml version="1.0" standalone="no"?>
<!DOCTYPE svg PUBLIC "-//W3C//DTD SVG 20010904//EN"
 "http://www.w3.org/TR/2001/REC-SVG-20010904/DTD/svg10.dtd">
<svg version="1.0" xmlns="http://www.w3.org/2000/svg"
 width="157.000000pt" height="139.000000pt" viewBox="0 0 157.000000 139.000000"
 preserveAspectRatio="xMidYMid meet">
<metadata>
Created by potrace 1.16, written by Peter Selinger 2001-2019
</metadata>
<g transform="translate(0.000000,139.000000) scale(0.100000,-0.100000)"
fill="#000000" stroke="none">
<path d="M855 1198 c-2 -7 -6 -30 -10 -52 -18 -111 -140 -205 -247 -193 -58 7
-66 -2 -43 -56 38 -90 -7 -223 -93 -278 -25 -16 -52 -29 -59 -29 -7 0 -13 -11
-13 -25 0 -17 9 -29 29 -40 16 -8 38 -29 49 -47 25 -41 62 -163 71 -231 l6
-52 68 -3 c68 -3 99 7 94 31 -1 7 5 11 13 10 39 -7 373 416 513 648 75 125 80
141 61 208 -21 74 -32 85 -70 71 -16 -7 -74 -12 -130 -12 -104 0 -156 13 -183
45 -16 20 -50 22 -56 5z m39 -18 c14 -5 26 -17 27 -27 0 -10 3 -13 5 -6 4 9
12 9 32 1 15 -6 82 -12 150 -13 67 -1 125 -5 129 -8 3 -4 12 -2 20 5 11 8 12
7 7 -6 -3 -9 -2 -16 3 -16 6 0 15 -18 22 -40 10 -36 9 -44 -14 -90 -14 -27
-28 -50 -31 -50 -3 0 -2 5 1 10 3 6 4 10 1 10 -3 0 -10 -10 -17 -21 -8 -16 -8
-20 1 -14 9 6 9 2 1 -14 -12 -22 -27 -30 -16 -8 10 18 -25 -25 -37 -47 -8 -14
-7 -17 4 -11 7 4 2 -3 -12 -15 -14 -12 -18 -18 -10 -14 8 5 -2 -9 -23 -30 -21
-20 -36 -45 -35 -54 2 -10 -3 -16 -11 -14 -8 2 -11 -3 -8 -12 3 -8 -2 -20 -11
-28 -16 -12 -16 -11 -2 7 14 19 14 19 -3 6 -10 -8 -16 -19 -13 -26 6 -15 -71
-115 -87 -112 -7 1 -11 -6 -11 -15 1 -14 -2 -15 -17 -8 -20 11 -35 -2 -23 -22
4 -6 3 -8 -4 -4 -6 3 -13 2 -17 -4 -3 -5 -2 -10 3 -10 5 0 9 -7 9 -16 0 -14
-2 -14 -14 2 -9 12 -10 21 -3 28 13 13 13 29 0 21 -17 -10 -11 5 16 43 l26 37
-27 -30 c-15 -16 -25 -23 -22 -13 11 34 -22 11 -69 -47 -97 -121 -119 -150
-103 -138 9 7 18 11 21 8 3 -3 13 5 24 17 15 18 16 20 2 9 -22 -16 -24 1 -3
19 8 7 15 9 15 5 0 -4 6 -2 14 4 11 9 15 8 20 -4 3 -9 2 -13 -4 -10 -5 3 -19
-8 -31 -25 -13 -16 -29 -30 -36 -30 -8 0 -11 -5 -8 -10 4 -6 1 -9 -7 -8 -7 2
-12 -3 -10 -11 2 -11 0 -12 -11 -3 -11 10 -17 9 -27 -3 -10 -12 -10 -15 0 -15
10 0 10 -3 0 -15 -6 -8 -17 -13 -22 -12 -6 1 -13 -4 -16 -12 -3 -8 0 -11 7 -7
6 4 11 5 11 2 0 -3 -4 -7 -10 -11 -9 -6 -59 61 -64 87 -2 7 -6 20 -9 28 -15
36 -26 109 -22 154 4 47 20 80 35 71 4 -3 14 3 21 13 13 15 12 16 -3 3 -10 -7
-18 -10 -18 -6 0 4 -7 1 -17 -6 -15 -13 -15 -12 -4 9 7 12 16 20 21 17 5 -3
11 -1 15 5 4 6 12 7 18 4 7 -4 8 -3 4 1 -11 13 -38 15 -31 3 4 -6 2 -8 -4 -5
-12 8 -4 47 10 47 5 0 6 -6 2 -12 -4 -7 -3 -9 1 -5 12 10 15 38 4 31 -14 -9
-11 1 23 63 82 151 214 274 342 317 70 24 188 23 259 -2 31 -11 55 -16 52 -11
-3 5 -38 18 -76 30 -154 47 -293 8 -430 -119 -185 -171 -277 -414 -223 -587
20 -63 81 -155 112 -171 20 -10 14 -11 -37 -10 -34 0 -62 3 -62 6 -7 25 -4 50
5 50 7 0 8 3 1 8 -6 4 -19 36 -30 72 -25 87 -61 159 -96 192 -16 15 -29 33
-29 40 0 10 2 10 9 0 6 -11 10 -10 15 4 3 9 9 14 13 10 11 -10 90 82 114 133
23 49 28 110 15 177 l-8 42 65 4 c57 3 71 9 120 46 57 43 105 118 109 175 1
15 3 27 5 27 1 0 13 -4 27 -10z"/>
</g>
</svg>
