<?xml version="1.0" standalone="no"?>
<!DOCTYPE svg PUBLIC "-//W3C//DTD SVG 20010904//EN"
 "http://www.w3.org/TR/2001/REC-SVG-20010904/DTD/svg10.dtd">
<svg version="1.0" xmlns="http://www.w3.org/2000/svg"
 width="143.000000pt" height="146.000000pt" viewBox="0 0 143.000000 146.000000"
 preserveAspectRatio="xMidYMid meet">
<metadata>
Created by potrace 1.16, written by Peter Selinger 2001-2019
</metadata>
<g transform="translate(0.000000,146.000000) scale(0.100000,-0.100000)"
fill="#000000" stroke="none">
<path d="M900 1240 c-69 -8 -110 -14 -167 -26 -12 -2 -34 -15 -50 -27 -15 -13
-41 -27 -56 -31 -16 -4 -49 -27 -74 -51 -25 -25 -49 -45 -54 -45 -13 0 -49
-61 -49 -82 0 -10 -22 -40 -50 -66 -36 -35 -50 -56 -50 -76 0 -15 -10 -40 -22
-57 -33 -44 -48 -179 -33 -289 10 -76 14 -87 41 -120 15 -17 36 -50 48 -72 25
-50 65 -81 104 -81 42 0 89 48 287 293 95 118 221 269 279 335 58 66 104 126
101 132 -2 7 1 12 7 10 16 -3 58 82 58 121 0 38 -23 83 -52 101 -46 28 -163
42 -268 31z m137 -11 c30 -11 93 -67 93 -83 0 -12 31 -46 42 -46 5 0 6 5 3 10
-3 6 -1 10 6 10 7 0 5 8 -6 20 -14 16 -20 17 -27 8 -4 -8 -8 -8 -8 -2 0 18 13
24 27 12 11 -9 12 -7 7 6 -4 11 -14 16 -25 13 -11 -3 -22 -1 -25 4 -3 5 3 9
13 9 15 0 16 2 3 10 -8 5 -10 10 -5 10 16 0 63 -47 70 -71 10 -30 -3 -86 -21
-93 -9 -3 -14 -13 -10 -21 3 -8 0 -17 -6 -21 -7 -5 -8 -2 -4 7 4 8 -1 3 -12
-11 -11 -13 -20 -27 -19 -30 1 -3 -1 -5 -4 -5 -3 0 -13 -6 -22 -14 -19 -15
-23 -36 -5 -25 6 4 -35 -46 -93 -112 -107 -123 -196 -230 -341 -414 -67 -84
-88 -105 -111 -107 l-28 -2 23 28 c93 114 183 209 189 200 9 -15 21 5 14 23
-3 8 1 21 10 28 11 9 15 9 15 1 0 -7 5 -9 10 -6 6 3 10 11 10 16 0 6 -5 7 -11
3 -6 -3 -3 6 7 20 11 18 19 23 24 16 5 -9 9 -9 14 -1 4 6 4 16 0 23 -5 7 -3 8
6 3 9 -6 11 -4 5 5 -5 9 -4 11 3 6 8 -4 10 -2 6 7 -3 8 -1 18 5 22 6 3 11 1
11 -5 0 -6 5 -8 11 -5 6 4 8 14 5 22 -4 9 -2 11 6 7 6 -4 8 -3 5 3 -4 6 0 19
8 29 9 12 14 14 15 6 0 -7 5 -10 11 -7 6 4 8 14 5 22 -4 9 -2 11 6 7 7 -5 8
-3 3 6 -5 9 -4 11 3 6 7 -4 10 -2 6 7 -3 8 2 20 11 27 12 10 15 10 15 0 0 -10
3 -10 15 0 9 7 14 19 11 27 -3 8 -2 12 3 9 5 -3 15 2 22 12 13 15 12 16 -3 3
-30 -23 -20 4 13 35 33 31 119 146 119 159 0 5 -3 5 -7 2 -3 -4 -11 1 -18 10
-9 13 -14 13 -20 3 -6 -9 -4 -11 5 -5 8 5 11 3 8 -6 -3 -8 -10 -14 -16 -14 -5
0 -14 -4 -19 -9 -4 -5 -3 -6 3 -3 7 4 15 0 18 -9 7 -19 -20 -67 -33 -60 -5 3
-17 -4 -27 -17 -16 -18 -16 -19 -1 -8 36 28 14 -3 -66 -93 -45 -51 -141 -164
-212 -251 -151 -185 -221 -262 -229 -254 -3 3 22 39 55 80 l61 74 -59 -61
c-45 -48 -65 -61 -88 -61 -16 -1 -22 1 -12 4 21 6 22 22 1 30 -13 5 -12 9 7
29 12 13 25 21 30 19 4 -3 10 -1 14 5 4 6 10 8 15 5 5 -3 11 -1 14 3 11 19
-44 5 -67 -16 -36 -34 -44 -26 -11 10 23 27 24 29 3 10 -26 -22 -45 -30 -35
-13 4 5 3 11 -1 14 -5 2 -3 2 4 1 6 -2 17 5 25 14 12 15 11 16 -4 3 -20 -15
-24 -1 -5 18 10 10 8 11 -8 5 -17 -7 -18 -6 -7 8 11 14 10 16 -10 12 -13 -2
-17 -2 -10 2 21 10 13 26 -10 19 -21 -7 -22 -6 -5 7 14 10 16 22 12 53 -11 69
-6 104 21 156 70 139 193 248 344 307 55 22 82 26 172 26 72 1 100 4 85 10
-45 18 -178 9 -253 -16 -177 -62 -340 -227 -400 -408 -13 -39 -19 -84 -19
-155 0 -88 3 -107 27 -158 15 -32 32 -56 38 -52 5 3 7 0 4 -8 -7 -19 19 -38
55 -39 25 -1 29 -4 20 -15 -6 -7 -19 -13 -28 -13 -14 0 -14 2 -1 11 12 8 11 9
-6 5 -14 -4 -27 1 -40 15 -10 11 -28 25 -39 31 -12 6 -6 -3 14 -23 18 -18 28
-35 22 -37 -6 -2 -8 -9 -4 -15 4 -6 -8 0 -26 13 -43 30 -63 78 -55 129 7 46
-6 59 -32 28 l-19 -22 25 20 c13 11 20 13 14 5 -6 -8 -10 -24 -8 -35 2 -17 -1
-16 -21 8 -32 37 -40 83 -21 136 9 27 11 51 6 65 -8 20 -8 20 -19 -6 -14 -37
-18 -35 -16 6 2 43 25 78 70 106 20 12 34 25 31 28 -3 3 -2 10 3 16 17 22 19
43 5 43 -10 0 -12 -7 -8 -21 6 -20 5 -20 -8 -3 -8 11 -20 16 -31 11 -19 -7
-22 -20 -7 -29 6 -3 10 -14 10 -23 -1 -13 -4 -12 -13 6 -7 12 -16 19 -20 16
-4 -4 -7 -3 -7 3 0 21 44 65 80 79 20 8 47 29 60 47 13 18 19 29 15 25 -4 -4
-14 -3 -21 3 -18 15 -38 -23 -21 -41 10 -12 9 -12 -5 -1 -10 7 -16 17 -13 21
3 5 1 11 -4 14 -5 4 -13 1 -17 -5 -4 -7 -3 -9 2 -6 5 3 10 -3 10 -14 0 -19 -1
-20 -14 -2 -14 17 -14 17 -9 -5 3 -12 1 -20 -3 -17 -5 3 -11 -1 -14 -7 -3 -7
-3 -2 1 12 3 14 12 35 20 47 18 27 90 63 125 63 17 0 28 8 36 25 11 24 10 25
-13 21 -13 -3 -29 2 -36 10 -9 11 -9 14 1 14 8 0 11 3 7 6 -3 3 -11 3 -17 -1
-8 -5 -8 -10 0 -20 7 -8 8 -20 4 -26 -4 -8 -3 -9 4 -5 7 4 12 2 12 -3 0 -17
-37 -13 -44 5 -8 22 8 48 46 76 25 17 48 23 93 24 69 2 119 17 92 27 -10 4
-17 1 -17 -6 0 -7 -3 -8 -8 -2 -11 16 -47 41 -39 29 10 -17 -16 -34 -47 -32
-14 1 -26 3 -26 4 0 0 9 9 19 18 14 13 21 14 27 5 5 -8 3 -10 -6 -4 -9 5 -11
4 -6 -4 4 -6 12 -9 17 -5 5 3 7 9 4 14 -17 28 97 41 131 15 21 -16 74 -20 74
-6 0 4 -9 8 -20 7 -11 0 -18 4 -17 9 1 6 7 10 13 9 6 -1 11 5 11 12 0 17 -13
18 -22 3 -5 -7 -14 -5 -28 4 -15 9 -30 11 -45 6 -36 -13 -25 1 13 17 47 19 74
18 120 -7 42 -22 105 -35 105 -22 -1 13 -49 45 -59 39 -5 -3 -11 0 -14 8 -5
12 10 14 60 8 6 -1 33 -20 58 -42 48 -42 64 -49 66 -27 0 9 2 9 6 -1 2 -6 9
-10 14 -6 16 10 -1 24 -29 24 -20 0 -23 3 -13 9 8 5 11 16 8 25 -6 16 -22 20
-62 17 -17 -2 -17 0 -5 8 19 13 22 13 57 0z"/>
</g>
</svg>
