<?xml version="1.0" standalone="no"?>
<!DOCTYPE svg PUBLIC "-//W3C//DTD SVG 20010904//EN"
 "http://www.w3.org/TR/2001/REC-SVG-20010904/DTD/svg10.dtd">
<svg version="1.0" xmlns="http://www.w3.org/2000/svg"
 width="134.000000pt" height="126.000000pt" viewBox="0 0 134.000000 126.000000"
 preserveAspectRatio="xMidYMid meet">
<metadata>
Created by potrace 1.16, written by Peter Selinger 2001-2019
</metadata>
<g transform="translate(0.000000,126.000000) scale(0.100000,-0.100000)"
fill="#000000" stroke="none">
<path d="M677 986 c-96 -34 -156 -76 -241 -167 -99 -105 -138 -183 -144 -287
-3 -63 0 -88 18 -136 30 -79 93 -145 173 -182 54 -25 74 -28 158 -29 90 0 100
2 165 35 51 26 73 44 86 69 21 42 11 66 -29 69 -49 4 -134 23 -131 30 24 47
34 60 61 77 18 11 36 29 41 40 5 11 24 30 42 42 38 25 36 28 53 -71 6 -33 13
-62 16 -65 3 -2 31 9 63 25 100 52 148 149 140 279 -11 170 -133 282 -318 291
-72 4 -95 1 -153 -20z m275 -18 c121 -56 182 -148 183 -278 0 -64 -4 -84 -30
-135 -28 -54 -77 -106 -90 -93 -12 11 7 37 23 31 13 -4 14 -3 4 5 -16 11 -6
61 15 69 8 3 10 9 4 17 -5 6 -8 31 -7 56 1 25 -1 65 -5 90 -4 29 -3 50 5 60 9
13 9 13 -5 3 -13 -11 -18 -9 -29 15 -14 28 -17 35 -19 51 0 5 -10 7 -21 4 -11
-3 -20 0 -20 6 0 6 -9 11 -20 11 -12 0 -20 7 -20 18 0 10 -3 13 -8 6 -8 -13
-42 -10 -51 4 -6 10 -36 9 -62 -2 -8 -4 -36 -8 -61 -9 -25 -1 -44 -5 -42 -8 4
-7 -40 -29 -57 -29 -6 0 -7 5 -3 12 4 7 3 8 -5 4 -6 -4 -9 -11 -6 -16 3 -5 -4
-11 -15 -15 -11 -3 -20 -11 -20 -17 0 -5 -7 -7 -16 -4 -8 3 -13 2 -10 -3 3 -4
-10 -22 -28 -40 -24 -24 -36 -29 -41 -20 -5 7 -4 10 2 6 6 -4 16 0 22 7 9 11
9 16 0 22 -7 4 -15 2 -17 -4 -2 -7 -7 -10 -12 -7 -9 6 -8 -14 2 -30 7 -12 -27
-57 -36 -47 -4 3 -4 -2 0 -12 6 -15 4 -17 -6 -11 -7 5 -11 4 -7 -1 3 -5 -3
-26 -13 -47 -46 -94 -54 -147 -33 -217 7 -24 11 -50 8 -58 -2 -7 0 -10 5 -7
11 7 13 -5 10 -42 -1 -18 2 -21 16 -16 14 5 16 3 11 -12 -6 -14 -5 -16 6 -7
17 14 61 -13 50 -31 -4 -7 0 -7 10 1 9 8 22 10 29 6 18 -12 36 -14 83 -14 80
2 111 7 149 23 21 9 41 17 44 17 3 0 20 11 39 26 23 17 33 21 33 11 0 -70
-191 -141 -315 -118 -30 6 -68 17 -85 26 -27 14 -30 18 -18 32 12 15 11 15 -9
2 -21 -12 -25 -11 -59 21 -109 105 -131 273 -54 406 141 244 409 370 602 282z
m-62 -89 c107 -23 159 -112 146 -250 -7 -76 -42 -179 -62 -179 -7 0 -14 -8
-16 -17 -2 -10 -11 20 -21 66 -18 91 -53 175 -68 165 -6 -3 -5 -12 2 -21 10
-12 10 -16 -2 -24 -11 -7 -11 -9 4 -9 17 0 17 -1 3 -16 -9 -8 -16 -23 -17 -32
0 -14 -2 -13 -8 3 -5 11 -5 22 -2 25 4 3 7 15 7 28 0 22 -1 22 -13 6 -7 -10
-13 -30 -13 -45 0 -15 -6 -34 -13 -41 -8 -7 -12 -18 -10 -25 2 -6 -10 -14 -28
-18 -23 -5 -28 -10 -18 -16 9 -6 0 -9 -28 -9 -33 0 -73 -18 -73 -34 0 -1 18
-1 39 0 37 2 39 0 28 -17 -15 -24 -42 -26 -33 -3 5 13 3 14 -7 6 -8 -7 -18 -7
-27 -2 -19 12 -30 13 -30 2 0 -15 73 -44 151 -61 42 -9 78 -20 79 -26 8 -30
-138 -75 -240 -75 -146 1 -214 75 -213 231 0 93 42 179 126 263 112 112 228
153 357 125z"/>
</g>
</svg>
