<?xml version="1.0" standalone="no"?>
<!DOCTYPE svg PUBLIC "-//W3C//DTD SVG 20010904//EN"
 "http://www.w3.org/TR/2001/REC-SVG-20010904/DTD/svg10.dtd">
<svg version="1.0" xmlns="http://www.w3.org/2000/svg"
 width="126.000000pt" height="128.000000pt" viewBox="0 0 126.000000 128.000000"
 preserveAspectRatio="xMidYMid meet">
<metadata>
Created by potrace 1.16, written by Peter Selinger 2001-2019
</metadata>
<g transform="translate(0.000000,128.000000) scale(0.100000,-0.100000)"
fill="#000000" stroke="none">
<path d="M762 1100 c-88 -19 -173 -71 -268 -165 -79 -77 -98 -103 -138 -185
-56 -118 -75 -217 -58 -306 13 -64 58 -162 95 -208 l23 -29 78 54 c42 29 108
87 145 128 87 97 295 359 342 431 32 48 99 197 99 219 0 10 -41 29 -100 47
-60 18 -165 25 -218 14z m255 -40 l51 -25 -29 -75 c-32 -83 -144 -244 -161
-233 -7 4 -9 0 -5 -10 6 -16 -15 -41 -26 -30 -4 3 -7 1 -7 -6 0 -7 -4 -10 -9
-6 -5 3 -12 1 -15 -4 -4 -5 -1 -13 5 -17 8 -5 9 -3 4 6 -5 9 -4 11 4 6 6 -4 9
-12 5 -17 -3 -5 -10 -7 -15 -4 -8 6 -13 -9 -10 -28 1 -5 -3 -6 -8 -3 -5 3 -21
-10 -35 -29 -15 -19 -24 -35 -20 -35 3 0 1 -7 -6 -15 -7 -8 -17 -12 -23 -8 -6
4 -8 0 -4 -9 3 -9 -3 -24 -14 -34 -10 -9 -19 -14 -19 -10 0 3 -11 -1 -25 -10
-14 -9 -22 -21 -18 -28 3 -6 2 -8 -2 -3 -5 4 -17 0 -27 -10 -10 -9 -18 -13
-18 -8 0 4 -7 2 -15 -5 -8 -7 -13 -16 -10 -20 3 -4 -3 -14 -13 -21 -15 -12
-16 -12 -4 2 10 14 10 18 -1 22 -8 3 -20 1 -28 -4 -12 -7 -12 -9 0 -9 10 0 11
-3 2 -13 -6 -8 -9 -17 -6 -20 3 -4 2 -5 -2 -2 -3 3 -12 0 -20 -6 -9 -8 -10
-15 -3 -24 8 -9 8 -15 0 -20 -6 -4 -9 -1 -8 7 2 7 -5 12 -14 12 -10 -1 -16 2
-13 6 3 4 -3 10 -13 12 -23 6 -52 111 -51 187 1 167 134 363 305 447 74 37 83
39 173 39 53 0 110 -3 126 -6 17 -4 22 -4 12 -2 -9 2 -14 9 -11 15 4 6 2 8 -4
5 -15 -10 -42 3 -42 18 0 8 -5 17 -12 21 -7 4 -8 3 -4 -4 4 -7 1 -12 -6 -12
-9 0 -9 -3 2 -10 9 -6 10 -10 3 -10 -6 0 -15 5 -18 10 -4 6 -11 7 -17 4 -7 -4
-8 -2 -4 4 4 7 2 12 -3 12 -6 0 -11 -5 -11 -12 0 -6 -3 -8 -6 -5 -4 4 -1 13 6
22 10 11 10 15 0 15 -6 0 -14 -9 -17 -20 -7 -25 -40 -26 -46 -2 -3 12 -5 11
-6 -6 -1 -14 -6 -22 -13 -19 -7 2 -32 -4 -55 -14 -24 -10 -43 -14 -43 -9 0 6
-5 10 -11 10 -6 0 -9 -7 -5 -15 3 -8 1 -15 -3 -15 -5 0 -11 7 -15 15 -5 13
-12 11 -45 -11 -32 -20 -39 -30 -35 -50 5 -27 -7 -32 -25 -10 -12 15 -55 10
-45 -5 3 -5 9 -7 14 -4 5 3 11 1 15 -5 4 -6 11 -7 17 -4 7 4 8 2 4 -4 -4 -6
-13 -9 -21 -5 -11 4 -13 1 -9 -11 8 -21 -19 -49 -34 -34 -6 6 -18 7 -29 3 -10
-5 -21 -7 -26 -7 -4 1 -2 -7 5 -18 7 -11 16 -20 20 -20 4 0 5 -6 2 -14 -4 -9
-17 -13 -37 -11 -18 2 -26 1 -18 -2 11 -5 11 -7 0 -15 -10 -6 -7 -7 9 -3 24 7
25 5 16 -19 -3 -9 -11 -13 -17 -9 -6 3 -7 1 -3 -5 4 -7 2 -12 -3 -12 -6 0 -10
-3 -10 -7 4 -26 -3 -43 -18 -43 -13 0 -14 -3 -6 -8 16 -10 5 -52 -13 -52 -7 0
-16 -4 -19 -10 -4 -6 1 -7 11 -3 14 5 15 1 9 -38 -4 -24 -13 -47 -19 -51 -8
-6 -8 -8 0 -8 7 0 14 -11 16 -24 4 -22 3 -23 -19 -15 -16 6 -22 5 -18 -1 3 -6
-1 -10 -9 -10 -22 0 -21 40 2 41 13 0 11 3 -6 10 -21 8 -23 13 -16 56 18 130
89 265 195 371 57 56 91 80 73 50 -4 -7 -3 -8 5 -4 6 4 9 11 6 16 -7 11 74 59
140 83 75 26 222 20 292 -13z"/>
</g>
</svg>
