<?xml version="1.0" standalone="no"?>
<!DOCTYPE svg PUBLIC "-//W3C//DTD SVG 20010904//EN"
 "http://www.w3.org/TR/2001/REC-SVG-20010904/DTD/svg10.dtd">
<svg version="1.0" xmlns="http://www.w3.org/2000/svg"
 width="132.000000pt" height="113.000000pt" viewBox="0 0 132.000000 113.000000"
 preserveAspectRatio="xMidYMid meet">
<metadata>
Created by potrace 1.16, written by Peter Selinger 2001-2019
</metadata>
<g transform="translate(0.000000,113.000000) scale(0.100000,-0.100000)"
fill="#000000" stroke="none">
<path d="M675 966 c-29 -15 -67 -26 -90 -26 -49 0 -99 -29 -125 -73 -11 -18
-35 -41 -55 -50 -48 -23 -93 -89 -101 -148 -4 -27 -13 -54 -21 -61 -39 -32
-54 -122 -29 -170 11 -21 12 -35 4 -62 -16 -51 3 -108 46 -141 20 -15 36 -38
40 -55 7 -40 58 -71 111 -69 22 1 53 -3 68 -10 44 -17 91 -13 128 12 19 13 50
23 72 24 75 2 142 82 135 161 l-3 37 -90 5 c-49 3 -85 8 -79 12 7 4 14 19 18
32 3 13 22 40 41 59 19 19 35 43 35 52 0 14 53 75 65 75 2 0 16 -33 30 -72 15
-40 31 -77 35 -81 11 -12 96 31 113 57 29 44 37 95 22 139 -10 30 -11 46 -3
60 16 30 3 96 -25 126 -13 14 -31 47 -41 73 -20 55 -51 78 -103 78 -21 0 -48
6 -59 14 -40 28 -85 29 -139 2z m138 -16 c14 -11 32 -17 41 -14 41 16 109 -32
119 -85 4 -16 17 -40 31 -54 30 -30 43 -89 27 -123 -8 -17 -8 -31 -1 -44 27
-50 4 -137 -46 -175 -30 -22 -34 -18 -18 20 7 19 14 50 14 69 0 19 6 41 14 49
13 12 13 17 0 35 -16 23 -16 79 0 102 10 13 9 13 -8 0 -18 -14 -19 -13 -14 12
3 17 1 25 -5 21 -6 -4 -8 2 -5 15 4 15 2 22 -8 22 -15 0 -19 12 -7 24 4 3 8
13 9 22 2 12 -1 13 -11 4 -8 -7 -20 -8 -26 -4 -9 5 -7 11 6 21 11 7 14 13 8
13 -7 0 -15 -4 -18 -10 -11 -17 -43 11 -38 34 3 20 3 20 -6 1 -5 -11 -10 -15
-10 -8 -1 6 -10 9 -21 6 -14 -4 -20 0 -20 11 0 9 -4 16 -10 16 -5 0 -10 -5
-10 -11 0 -6 -12 -8 -32 -4 -47 9 -49 9 -96 -4 -24 -7 -53 -9 -65 -6 -17 5
-19 4 -7 -4 12 -8 10 -12 -10 -19 -17 -7 -30 -6 -40 2 -13 10 -13 9 -1 -6 12
-16 11 -18 -3 -18 -9 0 -16 -4 -16 -9 0 -5 -13 -14 -30 -21 -16 -7 -27 -16
-24 -21 3 -5 -2 -9 -10 -9 -9 0 -16 -4 -16 -10 0 -5 -14 -25 -31 -44 -17 -20
-43 -60 -59 -90 -15 -30 -31 -52 -35 -48 -5 4 -5 2 -1 -5 3 -6 2 -14 -4 -18
-6 -4 -8 -11 -5 -16 4 -5 0 -9 -7 -9 -10 0 -10 -2 1 -9 10 -6 10 -13 2 -28 -5
-11 -7 -23 -4 -27 3 -3 -1 -6 -10 -6 -9 0 -17 -4 -17 -10 0 -5 6 -7 13 -5 8 4
12 -9 13 -45 1 -27 -3 -50 -8 -50 -5 0 -2 -7 7 -16 9 -10 14 -25 12 -35 -3
-10 2 -20 10 -23 8 -4 13 -13 9 -21 -3 -8 3 -19 12 -24 13 -8 14 -10 2 -11
-10 0 -7 -5 7 -15 15 -10 20 -21 16 -33 -6 -14 -4 -15 9 -5 18 16 32 5 17 -14
-12 -14 1 -18 16 -5 6 5 28 3 50 -4 33 -10 34 -21 2 -15 -5 1 -6 -3 -2 -9 4
-6 13 -7 23 -1 9 4 46 12 81 15 36 4 83 14 105 22 23 8 46 16 51 17 6 2 20 8
31 15 12 6 25 8 29 4 5 -4 6 -2 3 3 -3 6 11 23 30 40 l35 30 -7 -30 c-16 -66
-73 -115 -134 -115 -19 0 -45 -9 -59 -20 -36 -28 -86 -35 -122 -17 -19 9 -45
13 -68 10 -47 -6 -106 30 -112 67 -1 14 -21 41 -43 62 -39 36 -39 36 -37 105
2 42 -2 77 -10 92 -17 31 -7 96 23 141 13 20 27 54 30 77 9 52 56 116 100 137
19 9 43 32 55 51 27 46 76 75 128 75 25 0 56 8 75 20 43 26 107 26 141 0z m18
-61 c48 -16 84 -53 111 -113 20 -44 23 -67 23 -161 0 -110 -17 -189 -37 -183
-6 2 -27 42 -48 89 -40 95 -77 152 -91 144 -5 -4 -1 -18 8 -32 24 -37 26 -68
6 -84 -14 -12 -16 -12 -8 0 10 17 16 65 7 56 -4 -4 -8 -11 -8 -16 -4 -30 -6
-32 -13 -14 -5 11 -5 25 0 31 5 7 3 11 -6 11 -16 0 -17 -2 -18 -64 0 -33 -3
-40 -16 -36 -13 5 -13 3 -4 -7 13 -14 6 -43 -8 -34 -5 3 -9 0 -9 -5 0 -6 -8
-11 -17 -12 -17 0 -16 -1 0 -8 14 -5 5 -11 -37 -24 -67 -21 -73 -36 -13 -31
40 3 40 3 15 -8 -16 -7 -28 -16 -28 -21 0 -5 -13 -6 -30 -2 -16 4 -30 2 -30
-3 0 -15 70 -31 173 -38 53 -4 97 -11 97 -15 0 -17 -109 -81 -180 -105 -176
-59 -290 -12 -336 142 -49 165 48 387 220 499 72 48 204 68 277 44z"/>
</g>
</svg>
